:FULLY-SPECIFIED
:FORCE-ALL-JOINTS-BE-3DOF
:DEGREES
408
root 4.57939 16.2155 -11.1822 1.33875 -38.9022 -1.15061
lfemur -28.5956 7.21684 -10.2971
ltibia 45.674 0 0
lfoot -12.0534 14.4371 0
ltoes 1.74946 0 0
rfemur -42.4355 -26.0976 26.3333
rtibia 87.6232 0 0
rfoot 4.62596 -3.41616 0
rtoes 38.6668 0 0
lowerback 5.7728 4.76633 -0.927184
upperback 1.73084 6.22601 -2.31025
thorax -1.27833 3.10274 -2.27115
lowerneck -6.22072 2.47158 7.40129
upperneck 3.71724 2.65565 0.144547
head 2.37489 1.43576 -1.12873
lclavicle -7.94145e-14 1.03368e-14 0
lhumerus -45.6615 -17.7051 94.2025
lradius 51.4418 0 0
lwrist 19.541 0 0
lhand -19.4515 2.6434 0
lfingers 7.12502 0 0
lthumb 6.86932 32.512 0
rclavicle -7.94145e-14 1.03368e-14 0
rhumerus -45.4498 10.1875 -91.5749
rradius 64.5087 0 0
rwrist 7.72207 0 0
rhand -19.1364 -17.4691 0
rfingers 7.12502 0 0
rthumb 7.17347 -767.328 0
409
root 4.56996 16.2124 -11.1644 1.31073 -38.9387 -1.13325
lfemur -28.5452 7.28744 -10.3071
ltibia 45.7886 0 0
lfoot -12.1554 14.391 0
ltoes 1.73116 0 0
rfemur -42.6462 -26.1022 26.2337
rtibia 87.6221 0 0
rfoot 4.72364 -3.42752 0
rtoes 38.7149 0 0
lowerback 5.79586 4.75912 -0.927016
upperback 1.73351 6.2166 -2.31794
thorax -1.28814 3.09791 -2.28021
lowerneck -6.22445 2.50398 7.42643
upperneck 3.7281 2.69831 0.104658
head 2.38259 1.45652 -1.14439
lclavicle -8.02392e-14 1.03172e-14 0
lhumerus -45.662 -17.695 94.2094
lradius 51.4085 0 0
lwrist 19.5073 0 0
lhand -19.509 2.60656 0
lfingers 7.12502 0 0
lthumb 6.81385 32.4774 0
rclavicle -8.02392e-14 1.03172e-14 0
rhumerus -45.4556 10.1435 -91.5394
rradius 64.5793 0 0
rwrist 7.74869 0 0
rhand -19.2283 -17.4756 0
rfingers 7.12502 0 0
rthumb 7.08469 -767.336 0
410
root 4.5438 16.2043 -11.1161 1.2517 -39.025 -1.10636
lfemur -28.4078 7.47507 -10.316
ltibia 46.0979 0 0
lfoot -12.4394 14.2514 0
ltoes 1.69007 0 0
rfemur -43.1979 -26.0505 25.9458
rtibia 87.4532 0 0
rfoot 4.94778 -3.42803 0
rtoes 38.7926 0 0
lowerback 5.85875 4.73294 -0.905957
upperback 1.74239 6.18354 -2.33222
thorax -1.31215 3.08112 -2.30877
lowerneck -6.23516 2.59721 7.50041
upperneck 3.75753 2.82136 -0.0146637
head 2.40494 1.51623 -1.19124
lclavicle -8.2034e-14 1.01211e-14 0
lhumerus -45.6508 -17.6697 94.2276
lradius 51.2992 0 0
lwrist 19.3906 0 0
lhand -19.6625 2.50058 0
lfingers 7.12502 0 0
lthumb 6.66573 32.3771 0
rclavicle -8.2034e-14 1.01211e-14 0
rhumerus -45.4623 10.0217 -91.4359
rradius 64.7704 0 0
rwrist 7.84314 0 0
rhand -19.5031 -17.4863 0
rfingers 7.12502 0 0
rthumb 6.81937 -767.353 0
411
root 4.5037 16.1928 -11.0444 1.19352 -39.1259 -1.10251
lfemur -28.2052 7.74558 -10.2956
ltibia 46.5551 0 0
lfoot -12.875 14.0172 0
ltoes 1.63948 0 0
rfemur -43.9744 -25.8564 25.4839
rtibia 86.9144 0 0
rfoot 5.20811 -3.37778 0
rtoes 38.7975 0 0
lowerback 5.95208 4.68238 -0.839304
upperback 1.75822 6.12109 -2.34168
thorax -1.34331 3.04965 -2.35758
lowerneck -6.25211 2.7438 7.61946
upperneck 3.80115 3.01524 -0.209609
head 2.44053 1.61001 -1.26781
lclavicle -8.39229e-14 9.5875e-15 0
lhumerus -45.6126 -17.6382 94.2541
lradius 51.1062 0 0
lwrist 19.1735 0 0
lhand -19.8846 2.33314 0
lfingers 7.12502 0 0
lthumb 6.45129 32.2174 0
rclavicle -8.39229e-14 9.5875e-15 0
rhumerus -45.4579 9.8352 -91.2701
rradius 65.0534 0 0
rwrist 8.02083 0 0
rhand -19.955 -17.4935 0
rfingers 7.12502 0 0
rthumb 6.38303 -767.369 0
412
root 4.45192 16.179 -10.9557 1.1605 -39.2045 -1.14728
lfemur -27.9608 8.06766 -10.2227
ltibia 47.1208 0 0
lfoot -13.4342 13.6888 0
ltoes 1.58278 0 0
rfemur -44.8659 -25.45 24.8605
rtibia 85.8657 0 0
rfoot 5.43177 -3.25082 0
rtoes 38.6243 0 0
lowerback 6.06658 4.60389 -0.71053
upperback 1.78094 6.02549 -2.33736
thorax -1.37596 3.00173 -2.42557
lowerneck -6.27453 2.93425 7.77772
upperneck 3.85501 3.26757 -0.471988
head 2.48744 1.73173 -1.37092
lclavicle -8.52203e-14 8.61542e-15 0
lhumerus -45.5372 -17.6119 94.2873
lradius 50.83 0 0
lwrist 18.8475 0 0
lhand -20.1498 2.11297 0
lfingers 7.12502 0 0
lthumb 6.19535 32.0059 0
rclavicle -8.52203e-14 8.61542e-15 0
rhumerus -45.4364 9.59379 -91.0498
rradius 65.4024 0 0
rwrist 8.28855 0 0
rhand -20.5728 -17.4958 0
rfingers 7.12502 0 0
rthumb 5.7865 -767.384 0
413
root 4.39017 16.1635 -10.8554 1.16938 -39.2227 -1.25928
lfemur -27.6993 8.41284 -10.0782
ltibia 47.7631 0 0
lfoot -14.0919 13.2678 0
ltoes 1.51347 0 0
rfemur -45.7689 -24.778 24.0854
rtibia 84.229 0 0
rfoot 5.56331 -3.03516 0
rtoes 38.1645 0 0
lowerback 6.19309 4.49579 -0.511287
upperback 1.80968 5.89497 -2.31273
thorax -1.40585 2.93653 -2.50986
lowerneck -6.30163 3.15699 7.96719
upperneck 3.91556 3.56309 -0.789225
head 2.54336 1.87392 -1.49571
lclavicle -8.54309e-14 7.1638e-15 0
lhumerus -45.4194 -17.6042 94.3272
lradius 50.4793 0 0
lwrist 18.4124 0 0
lhand -20.4338 1.84989 0
lfingers 7.12502 0 0
lthumb 5.92124 31.7514 0
rclavicle -8.54309e-14 7.1638e-15 0
rhumerus -45.3975 9.30427 -90.7846
rradius 65.7942 0 0
rwrist 8.64442 0 0
rhand -21.3396 -17.4987 0
rfingers 7.12502 0 0
rthumb 5.046 -767.402 0
